<?xml version="1.0" encoding="UTF-8" standalone="no"?>
<!-- Created with Inkscape (http://www.inkscape.org/) -->

<svg
   xmlns:dc="http://purl.org/dc/elements/1.1/"
   xmlns:cc="http://creativecommons.org/ns#"
   xmlns:rdf="http://www.w3.org/1999/02/22-rdf-syntax-ns#"
   xmlns:svg="http://www.w3.org/2000/svg"
   xmlns="http://www.w3.org/2000/svg"
   xmlns:sodipodi="http://sodipodi.sourceforge.net/DTD/sodipodi-0.dtd"
   xmlns:inkscape="http://www.inkscape.org/namespaces/inkscape"
   width="50"
   height="40"
   viewBox="0 0 13.229166 10.583333"
   version="1.1"
   id="svg6216"
   sodipodi:docname="logo.svg"
   inkscape:version="0.92.4 (5da689c313, 2019-01-14)">
  <defs
     id="defs6210">
    <inkscape:path-effect
       effect="fill_between_strokes"
       id="path-effect7993"
       is_visible="true"
       linkedpath=""
       secondpath=""
       reversesecond="false" />
    <inkscape:path-effect
       effect="bspline"
       id="path-effect7991"
       is_visible="true"
       weight="33.333333"
       steps="2"
       helper_size="0"
       apply_no_weight="true"
       apply_with_weight="true"
       only_selected="false" />
    <filter
       style="color-interpolation-filters:sRGB"
       inkscape:label="Noise Fill"
       id="filter6332">
      <feTurbulence
         type="turbulence"
         baseFrequency="4.53126 4.16667"
         numOctaves="3"
         seed="164"
         result="turbulence"
         id="feTurbulence6316" />
      <feComposite
         in="SourceGraphic"
         in2="turbulence"
         operator="in"
         result="composite1"
         id="feComposite6318" />
      <feColorMatrix
         values="1 0 0 0 0 0 1 0 0 0 0 0 1 0 0 0 0 0 16.7 -11.46 "
         result="color"
         id="feColorMatrix6320" />
      <feFlood
         flood-opacity="1"
         flood-color="rgb(21,40,57)"
         result="flood"
         id="feFlood6322" />
      <feMerge
         result="merge"
         id="feMerge6328">
        <feMergeNode
           in="flood"
           id="feMergeNode6324" />
        <feMergeNode
           in="color"
           id="feMergeNode6326" />
      </feMerge>
      <feComposite
         in2="SourceGraphic"
         operator="in"
         result="fbSourceGraphic"
         id="feComposite6330" />
      <feColorMatrix
         result="fbSourceGraphicAlpha"
         in="fbSourceGraphic"
         values="0 0 0 -1 0 0 0 0 -1 0 0 0 0 -1 0 0 0 0 1 0"
         id="feColorMatrix6334" />
      <feTurbulence
         id="feTurbulence6336"
         type="turbulence"
         baseFrequency="4.53126 4.16667"
         numOctaves="3"
         seed="164"
         result="turbulence" />
      <feComposite
         in2="turbulence"
         id="feComposite6338"
         in="fbSourceGraphic"
         operator="in"
         result="composite1" />
      <feColorMatrix
         id="feColorMatrix6340"
         values="1 0 0 0 0 0 1 0 0 0 0 0 1 0 0 0 0 0 16.7 -11.46 "
         result="color" />
      <feFlood
         id="feFlood6342"
         flood-opacity="1"
         flood-color="rgb(21,40,57)"
         result="flood" />
      <feMerge
         id="feMerge6344"
         result="merge">
        <feMergeNode
           id="feMergeNode6346"
           in="flood" />
        <feMergeNode
           id="feMergeNode6348"
           in="color" />
      </feMerge>
      <feComposite
         in2="fbSourceGraphic"
         id="feComposite6350"
         operator="in"
         result="composite2" />
    </filter>
    <filter
       inkscape:label="Light Contour"
       inkscape:menu="Image Paint and Draw"
       inkscape:menu-tooltip="Uses vertical specular light to draw lines"
       style="color-interpolation-filters:sRGB"
       id="filter6578">
      <feConvolveMatrix
         bias="0.031152647975076775"
         result="result0"
         preserveAlpha="true"
         targetY="1"
         targetX="1"
         divisor="0"
         kernelMatrix="1 1 1 1 -8 1 1 1 1"
         order="3 3"
         id="feConvolveMatrix6574" />
      <feColorMatrix
         values="-0.15 -0.3 -0.05 0 1 -0.15 -0.3 -0.05 0 1 -0.15 -0.3 -0.05 0 1 0 0 0 1 0"
         result="fbSourceGraphic"
         id="feColorMatrix6576" />
      <feColorMatrix
         result="fbSourceGraphicAlpha"
         in="fbSourceGraphic"
         values="0 0 0 -1 0 0 0 0 -1 0 0 0 0 -1 0 0 0 0 1 0"
         id="feColorMatrix6580" />
      <feGaussianBlur
         id="feGaussianBlur6582"
         in="fbSourceGraphic"
         stdDeviation="1.5"
         result="result3" />
      <feComponentTransfer
         id="feComponentTransfer6584"
         result="result1"
         in="result3">
        <feFuncR
           id="feFuncR6586"
           type="discrete"
           tableValues="0 0.1 0.2 0.3 0.4 0.5 0.6 0.7 0.8 0.9 1" />
        <feFuncG
           id="feFuncG6588"
           type="discrete"
           tableValues="0 0.1 0.2 0.3 0.4 0.5 0.6 0.7 0.8 0.9 1" />
        <feFuncB
           id="feFuncB6590"
           type="discrete"
           tableValues="0 0.1 0.2 0.3 0.4 0.5 0.6 0.7 0.8 0.9 1" />
      </feComponentTransfer>
      <feGaussianBlur
         id="feGaussianBlur6592"
         result="result5"
         stdDeviation="0.01" />
      <feBlend
         in2="result5"
         id="feBlend6594"
         result="result6"
         mode="lighten"
         in="result5" />
      <feColorMatrix
         id="feColorMatrix6596"
         in="result6"
         type="luminanceToAlpha"
         result="result2" />
      <feSpecularLighting
         id="feSpecularLighting6598"
         surfaceScale="5"
         result="result9"
         specularExponent="20"
         in="result2"
         specularConstant="1">
        <feDistantLight
           id="feDistantLight6600"
           azimuth="180"
           elevation="90" />
      </feSpecularLighting>
      <feComposite
         in2="result6"
         id="feComposite6602"
         operator="arithmetic"
         in="result9"
         k1="0.4"
         k3="0.7"
         result="result3"
         k2="0"
         k4="0" />
      <feBlend
         in2="result1"
         id="feBlend6604"
         in="result3"
         mode="normal"
         result="result8" />
      <feComposite
         in2="fbSourceGraphic"
         id="feComposite6606"
         in="result8"
         operator="in"
         result="result7" />
    </filter>
    <filter
       inkscape:menu="Fill and Transparency"
       inkscape:menu-tooltip="Create a semi transparent posterized image"
       style="color-interpolation-filters:sRGB"
       inkscape:label="Posterized Light Eraser"
       id="filter8164">
      <feGaussianBlur
         stdDeviation="0.01"
         result="result1"
         in="SourceGraphic"
         id="feGaussianBlur8146" />
      <feColorMatrix
         values="1 0 0 0 0 0 1 0 0 0 0 0 1 0 0 0 0 0 50 0 "
         result="fbSourceGraphic"
         in="result1"
         id="feColorMatrix8148" />
      <feColorMatrix
         type="saturate"
         result="result8"
         values="1"
         id="feColorMatrix8150" />
      <feComponentTransfer
         in="result8"
         result="result7"
         id="feComponentTransfer8158">
        <feFuncR
           tableValues="0 0.2 0.4 0.6 0.8 1 1"
           type="discrete"
           id="feFuncR8152" />
        <feFuncG
           tableValues="0 0.2 0.4 0.6 0.8 1 1"
           type="discrete"
           id="feFuncG8154" />
        <feFuncB
           tableValues="0 0.2 0.4 0.6 0.8 1 1"
           type="discrete"
           id="feFuncB8156" />
      </feComponentTransfer>
      <feColorMatrix
         values="1 0 0 0 0 0 1 0 0 0 0 0 1 0 0 -0.21 -0.72 -0.07 1 0 "
         result="result2"
         in="result7"
         id="feColorMatrix8160" />
      <feComposite
         in2="SourceGraphic"
         operator="in"
         result="fbSourceGraphic"
         in="result2"
         id="feComposite8162" />
      <feColorMatrix
         result="fbSourceGraphicAlpha"
         in="fbSourceGraphic"
         values="0 0 0 -1 0 0 0 0 -1 0 0 0 0 -1 0 0 0 0 1 0"
         id="feColorMatrix8334" />
      <feColorMatrix
         id="feColorMatrix8336"
         values="1 0 0 0 0 0 1 0 0 0 0 0 1 0 0 130.135 438.111 44.154 -0 0 "
         result="colormatrix"
         in="fbSourceGraphic" />
      <feComposite
         in2="colormatrix"
         id="feComposite8338"
         operator="arithmetic"
         k2="1"
         result="fbSourceGraphic"
         k1="0"
         k3="0"
         k4="0" />
      <feColorMatrix
         result="fbSourceGraphicAlpha"
         in="fbSourceGraphic"
         values="0 0 0 -1 0 0 0 0 -1 0 0 0 0 -1 0 0 0 0 1 0"
         id="feColorMatrix8340" />
      <feColorMatrix
         id="feColorMatrix8342"
         values="1 0 0 0 0 0 1 0 0 0 0 0 1 0 0 130.135 438.111 44.154 -0 0 "
         result="colormatrix"
         in="fbSourceGraphic" />
      <feComposite
         in2="colormatrix"
         id="feComposite8344"
         operator="arithmetic"
         k2="1"
         result="fbSourceGraphic"
         k1="0"
         k3="0"
         k4="0" />
      <feColorMatrix
         result="fbSourceGraphicAlpha"
         in="fbSourceGraphic"
         values="0 0 0 -1 0 0 0 0 -1 0 0 0 0 -1 0 0 0 0 1 0"
         id="feColorMatrix8380" />
      <feGaussianBlur
         id="feGaussianBlur8382"
         stdDeviation="0.01"
         result="result1"
         in="fbSourceGraphic" />
      <feColorMatrix
         id="feColorMatrix8384"
         values="1 0 0 0 0 0 1 0 0 0 0 0 1 0 0 0 0 0 50 0 "
         result="fbSourceGraphic"
         in="result1" />
      <feColorMatrix
         id="feColorMatrix8386"
         type="saturate"
         result="result8"
         values="1" />
      <feComponentTransfer
         id="feComponentTransfer8388"
         in="result8"
         result="result7">
        <feFuncR
           id="feFuncR8390"
           tableValues="0 0.2 0.4 0.6 0.8 1 1"
           type="discrete" />
        <feFuncG
           id="feFuncG8392"
           tableValues="0 0.2 0.4 0.6 0.8 1 1"
           type="discrete" />
        <feFuncB
           id="feFuncB8394"
           tableValues="0 0.2 0.4 0.6 0.8 1 1"
           type="discrete" />
      </feComponentTransfer>
      <feColorMatrix
         id="feColorMatrix8396"
         values="1 0 0 0 0 0 1 0 0 0 0 0 1 0 0 -0.21 -0.72 -0.07 1 0 "
         result="result2"
         in="result7" />
      <feComposite
         in2="fbSourceGraphic"
         id="feComposite8398"
         operator="in"
         result="result9"
         in="result2" />
    </filter>
    <filter
       inkscape:label="Pencil"
       inkscape:menu="Image Paint and Draw"
       inkscape:menu-tooltip="Detect color edges and retrace them in grayscale"
       style="color-interpolation-filters:sRGB"
       id="filter8834">
      <feConvolveMatrix
         bias="0"
         result="result0"
         preserveAlpha="true"
         targetY="1"
         targetX="1"
         divisor="1"
         kernelMatrix="1 1 1 1 -8 1 1 1 1"
         order="3 3"
         id="feConvolveMatrix8830"
         edgeMode="wrap" />
      <feColorMatrix
         values="-0.15 -0.3 -0.05 0 1 -0.15 -0.3 -0.05 0 1 -0.15 -0.3 -0.05 0 1 0 0 0 1 0"
         result="result3"
         id="feColorMatrix8832" />
    </filter>
    <filter
       style="color-interpolation-filters:sRGB;"
       inkscape:label="Opacity"
       id="filter9114">
      <feColorMatrix
         values="0.497396 0 0 0 0.502604 0 0.497396 0 0 0.502604 0 0 0.497396 0 0.502604 0 0 0 1 0"
         id="feColorMatrix9112"
         result="fbSourceGraphic" />
      <feColorMatrix
         result="fbSourceGraphicAlpha"
         in="fbSourceGraphic"
         values="0 0 0 -1 0 0 0 0 -1 0 0 0 0 -1 0 0 0 0 1 0"
         id="feColorMatrix9116" />
      <feColorMatrix
         id="feColorMatrix9118"
         values="0.5 0 0 0 0.5 0 0.5 0 0 0.5 0 0 0.5 0 0.5 0 0 0 1 0"
         in="fbSourceGraphic"
         result="fbSourceGraphic" />
      <feColorMatrix
         result="fbSourceGraphicAlpha"
         in="fbSourceGraphic"
         values="0 0 0 -1 0 0 0 0 -1 0 0 0 0 -1 0 0 0 0 1 0"
         id="feColorMatrix9172" />
      <feFlood
         id="feFlood9174"
         flood-opacity="1"
         flood-color="rgb(41,25,25)"
         result="flood"
         in="fbSourceGraphic" />
      <feComposite
         in2="fbSourceGraphic"
         id="feComposite9176"
         in="flood"
         operator="in"
         result="composite" />
      <feGaussianBlur
         id="feGaussianBlur9178"
         stdDeviation="0.01"
         result="fbSourceGraphic" />
      <feColorMatrix
         result="fbSourceGraphicAlpha"
         in="fbSourceGraphic"
         values="0 0 0 -1 0 0 0 0 -1 0 0 0 0 -1 0 0 0 0 1 0"
         id="feColorMatrix9968" />
      <feColorMatrix
         id="feColorMatrix9970"
         values="1 0 0 0 0 0 1 0 0 0 0 0 1 0 0 0 0 0 328.8 -166.7 "
         result="colormatrix"
         in="fbSourceGraphic" />
      <feComposite
         in2="colormatrix"
         id="feComposite9972"
         operator="arithmetic"
         k2="0.674479"
         result="composite" />
    </filter>
  </defs>
  <sodipodi:namedview
     id="base"
     pagecolor="#ffffff"
     bordercolor="#666666"
     borderopacity="1.0"
     inkscape:pageopacity="0.0"
     inkscape:pageshadow="2"
     inkscape:zoom="11.2"
     inkscape:cx="10.952453"
     inkscape:cy="26.849695"
     inkscape:document-units="mm"
     inkscape:current-layer="g9010"
     showgrid="false"
     inkscape:window-width="1920"
     inkscape:window-height="1027"
     inkscape:window-x="-8"
     inkscape:window-y="-8"
     inkscape:window-maximized="1"
     units="px" />
  <metadata
     id="metadata6213">
    <rdf:RDF>
      <cc:Work
         rdf:about="">
        <dc:format>image/svg+xml</dc:format>
        <dc:type
           rdf:resource="http://purl.org/dc/dcmitype/StillImage" />
        <dc:title></dc:title>
      </cc:Work>
    </rdf:RDF>
  </metadata>
  <g
     inkscape:label="BG"
     inkscape:groupmode="layer"
     id="layer1"
     transform="translate(-1.0454702,-44.513962)"
     style="opacity:1" />
  <g
     inkscape:groupmode="layer"
     id="layer2"
     inkscape:label="Logo"
     transform="translate(-0.13832276,-43.696099)">
    <g
       id="g9010"
       transform="matrix(1.3604303,0,0,1,-2.2945584,-0.24532488)">
      <path
         style="fill:#f1f1f1;stroke-width:0.03295544"
         d="m 5.1614877,52.671083 c 0.092417,-0.29135 0.4260619,-0.511683 0.3918876,-0.834474 0.050434,-1.100237 0.00995,-2.201647 0.02393,-3.302378 -7.412e-4,-0.639325 0.00882,-1.279654 -0.034073,-1.918076 -0.022313,-0.272109 -0.4212989,-0.486075 -0.394965,-0.723679 0.3266929,-0.08014 0.5979426,0.194332 0.8279631,0.350892 0.2781797,0.178655 0.3515309,0.468027 0.3260282,0.745344 0.031586,1.497636 0.00774,2.995653 0.00941,4.493375 -0.021398,0.253564 0.023461,0.537174 -0.1826846,0.747585 -0.2131262,0.252753 -0.5555612,0.462947 -0.932238,0.474468 L 5.174412,52.69146 5.161491,52.67108 Z m 2.471347,-0.03585 C 7.3046959,52.470331 7.0099464,52.248896 6.8130626,51.971387 6.709405,51.505955 6.7643456,51.029205 6.7421077,50.558641 c -0.010445,-1.458625 -0.032288,-2.917401 -0.00438,-4.375986 0.095817,-0.468748 0.5775937,-0.847926 1.1265547,-0.938806 0.3428908,0.0622 -0.1681842,0.343302 -0.1987845,0.5068 -0.1785285,0.31714 -0.09154,0.678821 -0.1229939,1.016885 -0.01152,1.68657 -0.030313,3.373993 0.00487,5.060063 0.050342,0.314056 0.3397329,0.542008 0.4980416,0.817138 -0.067624,0.139546 -0.3020913,0.02374 -0.4125795,-0.0095 z"
         id="path9068"
         inkscape:connector-curvature="0" />
      <path
         style="fill:#eeeeee;stroke-width:0.03295544"
         d="m 5.1926957,52.694736 c -0.024729,-0.0084 -0.044962,-0.02872 -0.044962,-0.04522 0,-0.0165 0.064374,-0.105461 0.1430546,-0.197693 0.07868,-0.09223 0.1764469,-0.242612 0.2172596,-0.334177 0.072969,-0.163711 0.07417,-0.210986 0.072094,-2.838733 -0.00206,-2.612198 -0.00374,-2.675345 -0.07467,-2.80994 -0.039907,-0.07573 -0.146675,-0.228746 -0.2372625,-0.340036 -0.090587,-0.11129 -0.1537975,-0.21716 -0.1404668,-0.235266 0.013331,-0.01811 0.05307,-0.03292 0.088309,-0.03292 0.03524,0 0.1635126,0.04171 0.2850517,0.09269 0.1215391,0.05098 0.3155043,0.170816 0.4310336,0.2663 0.1155294,0.09548 0.2473236,0.238235 0.2928767,0.317225 0.082824,0.143617 0.082824,0.143617 0.1014912,2.685141 0.016766,2.28267 0.012736,2.558635 -0.039564,2.709517 -0.032027,0.0924 -0.1070522,0.224566 -0.1667221,0.293711 -0.059671,0.06914 -0.1989984,0.185347 -0.3096182,0.258227 -0.1106201,0.07288 -0.2662373,0.148885 -0.3458162,0.168899 -0.07958,0.02001 -0.1632376,0.04114 -0.1859076,0.04694 -0.02267,0.0058 -0.061452,0.0037 -0.086181,-0.0047 z m 2.4425511,-0.07634 C 7.4982192,52.561901 7.3097984,52.444736 7.1636345,52.325137 7.0297567,52.215591 6.8815575,52.06482 6.8343027,51.99009 c -0.085917,-0.135872 -0.085917,-0.135872 -0.085917,-3.019378 0,-2.883506 0,-2.883506 0.079363,-3.027787 0.043649,-0.07935 0.1714992,-0.225366 0.2841102,-0.324469 0.1226808,-0.107965 0.2914122,-0.21654 0.420966,-0.270883 0.1189198,-0.04988 0.270285,-0.0907 0.3363667,-0.0907 0.066082,0 0.1201489,0.01516 0.1201489,0.0337 0,0.01853 -0.054658,0.09666 -0.1214618,0.173614 -0.066804,0.07695 -0.1679688,0.214647 -0.2248106,0.305983 -0.1033484,0.166066 -0.1033484,0.166066 -0.1130395,3.109483 -0.00884,2.683735 -0.00437,2.957611 0.050593,3.104299 0.033156,0.08849 0.1539104,0.269714 0.2683429,0.402729 0.1164634,0.135377 0.1993841,0.260824 0.1883535,0.284953 -0.010841,0.02371 -0.054393,0.0426 -0.096789,0.04198 -0.042396,-6.22e-4 -0.179773,-0.04347 -0.3052824,-0.09521 z"
         id="path9066"
         inkscape:connector-curvature="0" />
      <path
         style="fill:#ececec;stroke-width:0.03295544"
         d="M 7.6342422,52.606876 C 7.1887876,52.404037 6.7312254,52.056114 6.7718105,51.592472 6.7185988,50.494004 6.7711451,49.394297 6.747509,48.29531 c 0.00329,-0.731495 -0.013963,-1.465764 0.047195,-2.195123 0.1221319,-0.42731 0.5747853,-0.746186 1.0718969,-0.847755 0.1306831,0.333724 -0.4713964,0.529838 -0.3523217,0.907365 -0.034227,1.183791 -0.018763,2.369967 -0.00658,3.554786 0.013725,0.756141 0.021811,1.512811 0.054391,2.268404 0.027256,0.227622 0.6302761,0.57523 0.2844704,0.707326 -0.074096,-0.02217 -0.1367629,-0.0641 -0.2123217,-0.08344 z m -2.4865086,0.05713 C 5.4464512,52.307 5.6739814,51.898501 5.5862394,51.451753 c 0.015892,-1.633367 0.03003,-3.268931 -0.020983,-4.900991 -0.095376,-0.197632 -0.6866514,-0.786853 -0.072259,-0.608968 0.310364,0.184697 0.6772122,0.398466 0.7642459,0.729675 0.057001,0.464224 0.01224,0.934994 0.038835,1.401944 0.010031,1.270817 0.041405,2.544702 -0.020664,3.813693 -0.100668,0.417212 -0.5527374,0.748544 -1.0442912,0.79865 -0.028929,0.002 -0.054356,-0.04117 -0.08339,-0.02175 z"
         id="path9064"
         inkscape:connector-curvature="0" />
      <path
         style="fill:#e9e9e9;stroke-width:0.03295544"
         d="M 7.80214,52.672083 C 7.7288552,52.650163 7.5894268,52.589413 7.4922996,52.537099 7.3951722,52.484779 7.223771,52.361069 7.1114075,52.262184 6.9990446,52.163304 6.8770657,52.02426 6.8403439,51.953209 c -0.063186,-0.122255 -0.067401,-0.281422 -0.078592,-2.9674 -0.01183,-2.838216 -0.01183,-2.838216 0.072465,-3.015296 0.057575,-0.120956 0.148829,-0.231008 0.2879194,-0.347229 0.1119961,-0.09358 0.2908531,-0.209578 0.3974602,-0.257771 0.1066078,-0.04819 0.2572143,-0.09141 0.3346821,-0.09604 0.1038762,-0.0062 0.1361242,0.0019 0.1228449,0.03097 -0.0099,0.02166 -0.090418,0.128173 -0.1789209,0.236687 -0.088502,0.108514 -0.1950076,0.273787 -0.2366769,0.367275 -0.075058,0.168397 -0.075763,0.196293 -0.075763,3.000716 0,2.449445 0.00745,2.854746 0.055301,3.008963 0.030416,0.09802 0.089983,0.226559 0.1323729,0.285636 0.04239,0.05908 0.1395293,0.174389 0.2158663,0.256249 0.076337,0.08186 0.1341206,0.16905 0.1284075,0.193757 -0.00572,0.02471 -0.026574,0.04881 -0.046357,0.05357 -0.019784,0.0048 -0.09593,-0.0093 -0.1692148,-0.03121 z m -2.6310799,-0.01047 c -0.00929,-0.01262 0.062418,-0.12211 0.1593488,-0.24332 0.096931,-0.121209 0.2010386,-0.291994 0.2313513,-0.379522 0.047995,-0.138585 0.053852,-0.502061 0.045354,-2.813801 -0.00976,-2.65466 -0.00976,-2.65466 -0.1063254,-2.808279 C 5.4476771,46.332201 5.3497599,46.203122 5.283194,46.12985 5.2166281,46.05658 5.151847,45.973975 5.1392357,45.946288 c -0.014312,-0.03142 -0.00151,-0.05724 0.03406,-0.0687 0.031344,-0.0101 0.1557665,0.02052 0.276494,0.06804 0.1207272,0.04752 0.3131561,0.15837 0.4276195,0.246331 0.1144644,0.08796 0.252048,0.222661 0.3057425,0.299332 0.097628,0.139401 0.097628,0.139401 0.1075704,2.773992 0.00995,2.63459 0.00995,2.63459 -0.083341,2.80011 -0.051306,0.09104 -0.1687663,0.228883 -0.2610238,0.306326 -0.092257,0.07744 -0.2651776,0.1795 -0.3842665,0.226793 -0.1190889,0.04729 -0.251989,0.086 -0.295334,0.08601 -0.043345,1.2e-5 -0.086409,-0.0103 -0.095698,-0.02292 z"
         id="path9062"
         inkscape:connector-curvature="0" />
      <path
         style="fill:#e5e5e5;stroke-width:0.03295544"
         d="m 5.1694825,52.659466 c -0.010162,-0.0138 0.051059,-0.103108 0.1360353,-0.198474 0.084976,-0.09537 0.1896126,-0.257316 0.2325258,-0.359889 0.07777,-0.185889 0.078023,-0.195058 0.07746,-2.813356 -3.778e-4,-1.749337 -0.013248,-2.665199 -0.038532,-2.74163 -0.020882,-0.06312 -0.1260032,-0.223298 -0.2336024,-0.355943 -0.107599,-0.132645 -0.1956348,-0.251926 -0.1956348,-0.265069 0,-0.01314 0.052989,-0.02242 0.1177547,-0.02062 0.064765,0.0018 0.182116,0.0358 0.2607804,0.07555 0.078665,0.03975 0.2260473,0.13072 0.3275175,0.20216 0.1014709,0.07144 0.2390546,0.201255 0.3057423,0.288478 0.1212511,0.158589 0.1212511,0.158589 0.1315603,2.779923 0.010305,2.621334 0.010305,2.621334 -0.085398,2.800353 -0.061231,0.114532 -0.1650768,0.23409 -0.2882835,0.331903 -0.1059168,0.08409 -0.2779105,0.186233 -0.3822079,0.226992 -0.1042979,0.04076 -0.2250959,0.07424 -0.2684409,0.0744 -0.043345,1.51e-4 -0.087118,-0.01099 -0.097275,-0.02479 z m 2.513582,-0.03924 C 7.6042244,52.584846 7.473026,52.51747 7.3915132,52.470499 7.3100002,52.423528 7.1672174,52.314057 7.0742173,52.227228 6.9812173,52.1404 6.877953,52.027746 6.8447407,51.976885 c -0.055144,-0.08445 -0.061228,-0.342523 -0.070089,-2.973239 -0.0097,-2.880765 -0.0097,-2.880765 0.094231,-3.064669 0.057164,-0.101146 0.1829278,-0.249362 0.2794756,-0.329368 0.096547,-0.08001 0.2894399,-0.192735 0.4286498,-0.250508 0.1883496,-0.07817 0.2735038,-0.09871 0.3328218,-0.08029 0.078147,0.02427 0.076783,0.028 -0.069395,0.19012 -0.08201,0.09095 -0.1913135,0.240098 -0.2428976,0.331434 -0.093789,0.166066 -0.093789,0.166066 -0.093789,3.125056 0,2.801517 0.00353,2.966659 0.066221,3.103069 0.036422,0.07924 0.1537731,0.246512 0.2607804,0.371709 0.1070081,0.125196 0.1945593,0.240392 0.1945593,0.255989 0,0.0156 -0.044752,0.02836 -0.099449,0.02836 -0.054697,0 -0.1639549,-0.02895 -0.2427955,-0.06432 z"
         id="path9060"
         inkscape:connector-curvature="0" />
      <path
         style="fill:#e0e0e0;stroke-width:0.03295544"
         d="m 5.2032075,52.656417 c 0.1513256,-0.288643 0.4491006,-0.5446 0.3934343,-0.885354 0.038613,-1.429152 0.00991,-2.858851 0.015969,-4.288243 -0.013377,-0.327285 0.00971,-0.659783 -0.053926,-0.982999 -0.037142,-0.210556 -0.4194046,-0.438553 -0.3578979,-0.582757 0.3629784,0.0015 0.6223615,0.271235 0.8670139,0.463142 0.24094,0.221534 0.2021444,0.527106 0.2034986,0.802558 0.016826,1.525868 0.014497,3.052097 -0.00353,4.577833 0.00276,0.447625 -0.4719654,0.77377 -0.9390718,0.906803 -0.03842,0.02905 -0.095248,0.01743 -0.1254947,-0.01098 z m 0.5873924,-6.453645 c -0.095523,-0.08169 -0.428719,-0.276339 -0.443054,-0.234605 0.1498234,0.0904 0.3711085,0.203396 0.443054,0.234605 z M 7.719567,52.627731 C 7.3474071,52.449335 6.945103,52.216042 6.8193057,51.854815 6.7581405,51.057381 6.7975277,50.257652 6.7859305,49.4592 c 0.00304,-1.115279 -0.021541,-2.231561 0.026715,-3.346113 0.074098,-0.343824 0.423576,-0.595714 0.7699305,-0.756688 0.1938148,-0.02495 -0.2369277,0.135315 -0.2784609,0.200648 -0.1055868,0.06481 -0.283257,0.245419 -0.072896,0.07449 0.2317012,-0.08401 0.4350623,-0.340084 0.677011,-0.31034 -0.070427,0.249458 -0.4290032,0.432188 -0.3892139,0.733701 -0.02906,1.775693 -0.034825,3.552456 -0.020617,5.328574 -0.00772,0.313573 -0.01146,0.655172 0.2351245,0.913768 0.1090666,0.100955 0.4242812,0.459315 0.046703,0.352115 -0.020216,-0.0072 -0.040493,-0.01439 -0.060661,-0.02163 z"
         id="path9058"
         inkscape:connector-curvature="0" />
      <path
         style="fill:#dddddd;stroke-width:0.03295544"
         d="m 5.2029723,52.656098 c -0.011615,-0.01577 0.044178,-0.10074 0.1239744,-0.188822 0.079797,-0.08808 0.1813751,-0.234881 0.2257309,-0.326217 0.080647,-0.166066 0.080647,-0.166066 0.074462,-2.860548 -0.00618,-2.694484 -0.00618,-2.694484 -0.094666,-2.853313 -0.048664,-0.08736 -0.1551387,-0.232616 -0.2366101,-0.3228 -0.081472,-0.09018 -0.1481296,-0.174974 -0.1481296,-0.188423 0,-0.01345 0.1011647,0.0221 0.2248105,0.07899 0.1236459,0.0569 0.3290361,0.182448 0.4564228,0.279004 0.1273866,0.09656 0.2471974,0.175557 0.2662462,0.175557 0.019049,0 0.065596,0.05008 0.1034378,0.111291 0.066055,0.106845 0.069069,0.21601 0.075466,2.732537 0.00666,2.621247 0.00666,2.621247 -0.094788,2.782958 -0.055798,0.08894 -0.1705093,0.218051 -0.2549146,0.286911 -0.084406,0.06886 -0.2329891,0.160804 -0.3301861,0.204321 -0.097197,0.04352 -0.2202422,0.08769 -0.2734339,0.09817 -0.053191,0.01048 -0.1062111,0.0061 -0.1178214,-0.0096 z m 2.4647033,-0.05458 C 7.5619162,52.555846 7.3639658,52.43194 7.2277864,52.326166 7.0916072,52.220392 6.9361254,52.070933 6.8822711,51.994034 6.784355,51.854218 6.784355,51.854218 6.784355,48.970712 c 0,-2.883506 0,-2.883506 0.1019046,-3.04597 0.056048,-0.08936 0.1779958,-0.225227 0.2709961,-0.301938 0.093,-0.07671 0.225193,-0.163843 0.293762,-0.193628 0.1198877,-0.05208 0.1212329,-0.05208 0.035069,0 -0.04928,0.02979 -0.1531639,0.101709 -0.2308517,0.159832 -0.077688,0.05812 -0.187091,0.166084 -0.2431184,0.239914 -0.056028,0.07383 -0.1011528,0.148558 -0.1002784,0.166065 8.74e-4,0.01751 0.033634,-0.01912 0.072799,-0.0814 0.069791,-0.110972 0.075366,-0.113226 0.2800191,-0.113226 0.2088105,0 0.2088105,0 0.2919282,-0.148964 0.045715,-0.08193 0.1453029,-0.199936 0.2213065,-0.262234 0.076003,-0.0623 0.1480383,-0.105002 0.1600767,-0.0949 0.012039,0.0101 -0.042433,0.09074 -0.121047,0.179201 -0.078615,0.08845 -0.1675325,0.201768 -0.1975957,0.251807 -0.030062,0.05004 -0.0798,0.16553 -0.1105259,0.256647 -0.049594,0.147067 -0.052961,0.492809 -0.02999,3.079367 0.025877,2.9137 0.025877,2.9137 0.1214531,3.066457 0.052566,0.08402 0.1616133,0.222885 0.2423266,0.308598 0.080713,0.08571 0.1467506,0.176622 0.1467506,0.20202 0,0.0254 -0.029109,0.04618 -0.064687,0.04618 -0.035578,0 -0.1512177,-0.03736 -0.2569773,-0.08303 z M 5.9823712,46.359919 c -0.040043,-0.04273 -0.1592397,-0.136811 -0.2648809,-0.209065 -0.1056416,-0.07225 -0.240634,-0.152953 -0.299984,-0.179333 -0.05935,-0.02638 -0.089521,-0.04851 -0.067046,-0.04917 0.022475,-6.65e-4 0.1357792,0.0522 0.2517879,0.117474 0.1160083,0.06527 0.2746182,0.173723 0.352466,0.240996 0.077847,0.06727 0.1322991,0.130072 0.1210024,0.139554 -0.011293,0.0095 -0.053302,-0.01772 -0.093345,-0.06045 z"
         id="path9056"
         inkscape:connector-curvature="0" />
      <path
         style="fill:#dadada;stroke-width:0.03295544"
         d="M 7.6623651,52.588602 C 7.5143998,52.527027 7.3383065,52.414607 7.1707909,52.274777 7.0272309,52.154942 6.8817385,52.0045 6.8474741,51.940461 c -0.05731,-0.107112 -0.063307,-0.33769 -0.074884,-2.879168 -0.00918,-2.016817 -0.00135,-2.805449 0.029068,-2.92095 0.022909,-0.08702 0.1044015,-0.23648 0.1810942,-0.332132 0.076693,-0.09565 0.201012,-0.213271 0.2762649,-0.261376 0.1194096,-0.07633 0.1144429,-0.06865 -0.039025,0.06039 -0.096715,0.08132 -0.2139085,0.215787 -0.2604289,0.29882 -0.04652,0.08303 -0.08474,0.174747 -0.084933,0.203808 -2.878e-4,0.04523 0.035266,0.05284 0.2468392,0.05284 0.2471905,0 0.2471905,0 0.271614,-0.128323 0.013433,-0.07058 0.079073,-0.223434 0.1458671,-0.33968 0.066794,-0.116247 0.1790273,-0.257983 0.2494079,-0.314971 0.070381,-0.05699 0.1381103,-0.0951 0.1505112,-0.08469 0.012401,0.01041 -0.035302,0.07819 -0.1060073,0.150618 -0.070706,0.07243 -0.1817736,0.226032 -0.2468192,0.341335 -0.1182646,0.209643 -0.1182646,0.209643 -0.1111859,3.148458 0.00637,2.645803 0.013024,2.953841 0.066712,3.089525 0.032799,0.08289 0.1469643,0.248157 0.2537015,0.367257 0.1067376,0.119101 0.1940681,0.233597 0.1940681,0.254437 0,0.02084 -0.021695,0.03789 -0.048209,0.03789 -0.026515,0 -0.1519593,-0.04318 -0.2787651,-0.09595 z m -2.4433157,0.01291 c 0.020832,-0.02906 0.094367,-0.119016 0.163411,-0.199899 0.069044,-0.08088 0.1584007,-0.237893 0.1985717,-0.348909 0.071363,-0.197222 0.0728,-0.262019 0.062664,-2.827027 -0.010376,-2.625179 -0.010376,-2.625179 -0.09706,-2.786287 -0.047679,-0.08861 -0.1576878,-0.237858 -0.2444642,-0.331665 -0.1013577,-0.109569 -0.141714,-0.17505 -0.1128585,-0.183124 0.024704,-0.0069 0.1027813,0.04383 0.1735057,0.112759 0.096224,0.09378 0.1550574,0.125328 0.2337519,0.125328 0.081232,0 0.1529154,0.04122 0.3149946,0.181123 0.1154067,0.09962 0.1926615,0.154194 0.1716767,0.12128 C 6.062257,46.432181 5.9524419,46.327759 5.8392067,46.23305 5.6649328,46.087288 5.6565354,46.075839 5.7845097,46.15848 c 0.083151,0.05369 0.2007321,0.150139 0.2612899,0.214321 0.060558,0.06418 0.1322157,0.162054 0.159239,0.21749 0.039846,0.08174 0.051647,0.591583 0.062437,2.697458 0.013303,2.596665 0.013303,2.596665 -0.079727,2.762731 -0.051167,0.09134 -0.1709414,0.230403 -0.2661647,0.309038 -0.095224,0.07863 -0.2548204,0.177142 -0.3546601,0.218905 -0.09984,0.04176 -0.2274769,0.07593 -0.2836386,0.07593 -0.0877,0 -0.096765,-0.0075 -0.064235,-0.05284 z"
         id="path9054"
         inkscape:connector-curvature="0" />
      <path
         style="fill:#d8d8d8;stroke-width:0.03295544"
         d="m 7.6640992,52.588565 c -0.3312241,-0.160366 -0.635683,-0.388067 -0.8156655,-0.671894 -0.089472,-0.377465 -0.035355,-0.765404 -0.056195,-1.147449 -0.00214,-1.508907 -0.021199,-3.018247 0.011508,-4.526867 -0.012519,-0.162783 0.1631654,-0.501718 0.2616375,-0.491538 -0.1224668,0.182073 -0.3112377,0.416466 -0.176954,0.625203 0.2865087,0.159582 0.6110968,-0.08593 0.524833,-0.356579 0.026025,-0.258869 0.2083616,-0.503902 0.4360819,-0.676165 0.1923004,-0.07708 -0.2028135,0.265432 -0.2296589,0.382595 -0.2311877,0.332711 -0.1459055,0.726077 -0.1669811,1.091878 -0.00609,1.571468 0.013751,3.143023 0.029966,4.714344 0.0073,0.278184 0.026001,0.574106 0.2555628,0.795075 0.1031113,0.09885 0.4055855,0.456902 0.050252,0.310973 -0.040791,-0.0174 -0.079249,-0.04037 -0.124382,-0.04958 z m -2.4571232,0.02805 c 0.2321388,-0.247521 0.4567174,-0.538993 0.4130419,-0.869084 0.033207,-1.607536 0.027197,-3.215627 0.01917,-4.823199 -0.00266,-0.277115 -0.07276,-0.562402 -0.298898,-0.77518 -0.1059562,-0.09533 -0.2461999,-0.302947 -0.011341,-0.144372 0.15612,0.135165 0.3703615,0.609189 0.6185487,0.333386 0.2157985,0.02469 0.3361591,0.444657 0.2974962,0.665637 0.025066,1.581885 0.036775,3.164187 0.01978,4.7461 0.00752,0.334115 -0.2976922,0.594624 -0.5996688,0.776173 -0.097596,0.04643 -0.4070019,0.190505 -0.4581326,0.09054 z"
         id="path9052"
         inkscape:connector-curvature="0" />
      <path
         style="fill:#d5d5d5;stroke-width:0.03295544"
         d="M 7.8034228,52.641317 C 7.7308434,52.620116 7.5663753,52.539824 7.4379379,52.46289 7.3095006,52.385956 7.1449083,52.265087 7.0721768,52.194292 6.9994457,52.123498 6.9109729,52.01802 6.8755707,51.959897 c -0.060209,-0.09885 -0.065235,-0.290029 -0.077792,-2.958991 -0.013425,-2.853313 -0.013425,-2.853313 0.083503,-3.026927 0.053309,-0.09549 0.1062444,-0.173614 0.117632,-0.173614 0.011389,0 -0.015244,0.05775 -0.059184,0.128323 -0.064095,0.102953 -0.082805,0.192496 -0.094634,0.452907 -0.014745,0.324583 -0.014745,0.324583 0.2590073,0.324583 0.2737516,0 0.2737516,0 0.2737516,-0.327404 0,-0.249023 0.017263,-0.369523 0.072107,-0.503334 0.039658,-0.09676 0.1109572,-0.231363 0.1584408,-0.299116 0.047484,-0.06775 0.1282759,-0.156077 0.1795391,-0.196275 0.051263,-0.0402 0.1023835,-0.06538 0.1136007,-0.05597 0.011222,0.0094 -0.045499,0.08986 -0.1260372,0.178765 -0.080537,0.0889 -0.1827232,0.236375 -0.2270788,0.327712 -0.080647,0.166065 -0.080647,0.166065 -0.088433,3.019378 -0.00468,1.717438 0.00593,2.91809 0.026682,3.016033 0.018957,0.0895 0.091434,0.245749 0.1610582,0.347229 0.069625,0.101479 0.1779816,0.235648 0.240793,0.298154 0.070157,0.06981 0.101216,0.124226 0.080532,0.141078 -0.020244,0.01649 -0.086297,0.01206 -0.1656339,-0.01111 z m -2.5837498,-0.0068 c 0,-0.01089 0.071373,-0.109396 0.1586065,-0.218905 C 5.4655135,52.306103 5.5629746,52.147591 5.594861,52.063364 5.646688,51.926463 5.651801,51.627088 5.64308,49.240246 5.63342,46.59689 5.632573,46.568912 5.557545,46.434395 5.515866,46.359665 5.4147018,46.224159 5.3327346,46.13327 5.2507676,46.04238 5.1837034,45.956983 5.1837034,45.943497 c 0,-0.01349 0.030881,-0.01065 0.068623,0.0063 0.037743,0.01696 0.1356232,0.115051 0.217512,0.217989 0.081888,0.102938 0.1750601,0.266176 0.2070468,0.362752 0.058158,0.175593 0.058158,0.175593 0.2860638,0.175593 0.1253483,0 0.2279058,-0.0127 0.2279058,-0.02823 0,-0.01553 -0.01628,-0.06648 -0.03618,-0.113227 -0.032964,-0.07744 -0.03155,-0.08 0.015899,-0.02878 0.028643,0.03092 0.061923,0.126029 0.073956,0.211356 0.012032,0.08533 0.017018,1.289672 0.011079,2.676322 -0.010805,2.521181 -0.010805,2.521181 -0.099084,2.666242 -0.048556,0.07978 -0.1637579,0.204322 -0.2560039,0.276752 -0.092245,0.07243 -0.2502632,0.166802 -0.3511492,0.209716 -0.100886,0.04291 -0.2163398,0.07802 -0.2565641,0.07802 -0.040224,0 -0.073135,-0.0089 -0.073135,-0.0198 z"
         id="path9050"
         inkscape:connector-curvature="0" />
      <path
         style="fill:#d1d1d1;stroke-width:0.03019378;filter:url(#filter9114)"
         d="m 7.4975243,52.590376 c 0.3329502,-0.03571 -0.083809,-0.403623 -0.127697,-0.572253 -0.081888,-0.226351 -0.00792,-0.479192 -0.039199,-0.719598 -0.020059,-1.430948 -0.025598,-2.862879 -0.00182,-4.293487 0.027124,-0.47355 -0.1003945,-1.004294 0.1967265,-1.419039 0.1364817,-0.328195 -0.2394837,0.111769 -0.2332233,0.234565 -0.094632,0.331213 0.075761,0.710256 -0.1137943,1.01612 -0.2769279,0.331888 -0.4709354,-0.144275 -0.4052176,-0.399883 -0.00668,-0.125195 0.071511,-0.486115 0.013917,-0.168089 -0.058469,0.3218 -0.010954,0.654207 -0.026276,0.980523 -0.00206,1.523949 -0.02261,3.048405 0.027282,4.571864 0.077515,0.364776 0.4130367,0.587551 0.7093066,0.769277 z m -2.0678269,0.04656 c 0.5591667,-0.02214 0.8982652,-0.609728 0.8892879,-1.121782 -0.037718,-0.699837 -0.00707,-1.403102 -0.014731,-2.104417 0.0012,-0.916799 -0.00181,-1.833742 -0.027595,-2.750238 0.020133,0.310804 -0.3535857,0.47471 -0.4179577,0.102132 -0.091447,-0.24359 -0.1319579,-0.516771 -0.29382,-0.726431 -0.1966632,-0.04408 0.1559192,0.266934 0.1294431,0.390108 0.1739668,0.559396 0.035303,1.14841 0.084544,1.721044 0.00222,1.29513 0.044203,2.591609 -0.030781,3.885571 -0.059641,0.222381 -0.1899597,0.41626 -0.3183903,0.604013 z"
         id="path9048"
         inkscape:connector-curvature="0"
         transform="matrix(1.1912948,0,0,1,-1.2486975,0)" />
      <path
         style="fill:#cdcdcd;stroke-width:0.03295544"
         d="m 5.219673,52.643255 c 0,-0.0061 0.071094,-0.100095 0.1579883,-0.208869 0.086893,-0.108773 0.1843518,-0.264396 0.2165735,-0.345829 0.052686,-0.133153 0.057604,-0.419919 0.048837,-2.848253 -0.00974,-2.700192 -0.00974,-2.700192 -0.094729,-2.836064 -0.046739,-0.07473 -0.1493637,-0.208244 -0.2280537,-0.296699 -0.07869,-0.08845 -0.1358867,-0.166859 -0.127104,-0.174232 0.00878,-0.0074 0.084531,0.04903 0.1683293,0.125345 0.083798,0.07631 0.1937874,0.214708 0.2444202,0.307545 0.062212,0.114069 0.095439,0.233257 0.1024847,0.367614 0.00573,0.10935 0.011413,0.283739 0.012626,0.38753 0.0022,0.188711 0.0022,0.188711 0.2360047,0.188711 0.2338031,0 0.2338031,0 0.238008,-0.354777 0.00379,-0.319654 0.00743,-0.338454 0.036764,-0.189899 0.018172,0.09202 0.028235,1.272802 0.022773,2.67215 -0.00979,2.507272 -0.00979,2.507272 -0.1164836,2.668972 -0.058683,0.08894 -0.1774958,0.214012 -0.2640277,0.27795 -0.086532,0.06394 -0.2399793,0.150822 -0.3409945,0.193077 -0.1010146,0.04225 -0.212858,0.07683 -0.2485403,0.07683 -0.035683,0 -0.064877,-0.005 -0.064877,-0.0111 z M 7.6835973,52.58893 C 7.604464,52.554415 7.4541415,52.46757 7.3495474,52.395941 7.2449533,52.324313 7.0949161,52.200296 7.0161321,52.12035 6.9373477,52.040404 6.8571047,51.927438 6.837814,51.869315 6.815909,51.803315 6.80574,50.703757 6.810728,48.940518 c 0.0044,-1.552715 0.012737,-2.554771 0.018545,-2.226791 0.010555,0.596327 0.010555,0.596327 0.2770979,0.596327 0.2665398,0 0.2665398,0 0.2785889,-0.671812 0.011722,-0.65333 0.014761,-0.67721 0.1106237,-0.868071 0.054216,-0.107943 0.1615715,-0.257402 0.2385687,-0.332132 0.076997,-0.07473 0.1499353,-0.12777 0.1620862,-0.117869 0.01215,0.0099 -0.028865,0.07104 -0.091147,0.135872 -0.062282,0.06483 -0.1636552,0.206186 -0.225275,0.314129 -0.1120365,0.19626 -0.1120365,0.19626 -0.1120365,3.170347 0,2.80779 0.00367,2.9816 0.065527,3.108436 0.03604,0.07389 0.1545064,0.240335 0.2632579,0.369874 0.1828693,0.217824 0.1914614,0.235425 0.1143214,0.234191 -0.045876,-7.34e-4 -0.1481549,-0.02957 -0.2272882,-0.06409 z"
         id="path9046"
         inkscape:connector-curvature="0" />
      <path
         style="fill:#c9c9c9;stroke-width:0.03295544"
         d="m 5.219673,52.641267 c 0,-0.0108 0.033412,-0.04964 0.074251,-0.08631 0.040838,-0.03667 0.1339094,-0.167873 0.2068257,-0.291561 0.1325752,-0.224887 0.1325752,-0.224887 0.1325752,-2.974087 0,-2.749201 0,-2.749201 -0.085176,-2.894417 -0.046848,-0.07987 -0.1494133,-0.213433 -0.2279246,-0.296808 -0.078511,-0.08337 -0.1352482,-0.157887 -0.1260818,-0.165581 0.00916,-0.0077 0.083195,0.04945 0.1645096,0.126998 0.081314,0.07754 0.1917323,0.217403 0.2453746,0.310798 0.080502,0.14016 0.098393,0.214621 0.1024645,0.426457 0.00272,0.141156 0.00759,0.389122 0.010841,0.551036 0.00591,0.29439 0.00591,0.29439 0.2397161,0.29439 0.233803,0 0.233803,0 0.2392881,-0.520843 0.00418,-0.397326 0.011722,-0.4743 0.031765,-0.324583 0.014454,0.107942 0.028173,1.286123 0.030485,2.618178 0.00415,2.391475 0.00325,2.42405 -0.071398,2.591534 -0.051023,0.114472 -0.1363342,0.220365 -0.2624098,0.325716 -0.1027444,0.08585 -0.2589142,0.185729 -0.3470429,0.221942 -0.088128,0.03621 -0.2047463,0.07505 -0.2591504,0.08631 -0.054404,0.01125 -0.098917,0.01163 -0.098917,8.31e-4 z m 2.3898687,-0.09433 C 7.4920057,52.487854 7.3015027,52.362173 7.1862014,52.267642 7.0709006,52.173112 6.9414096,52.04142 6.8984439,51.974993 c -0.078119,-0.120775 -0.078119,-0.120775 -0.079123,-2.989184 -5.539e-4,-1.577625 0.00378,-2.525333 0.00961,-2.106016 0.010614,0.762393 0.010614,0.762393 0.279769,0.762393 0.2691551,0 0.2691551,0 0.2691551,-0.782147 0,-0.74145 0.0044,-0.793063 0.084566,-0.991966 0.046512,-0.115402 0.134171,-0.270341 0.1947979,-0.344309 0.060627,-0.07397 0.1362676,-0.152627 0.1680901,-0.174797 0.031823,-0.02217 0.064185,-0.03498 0.071915,-0.02846 0.00773,0.0065 -0.055589,0.08915 -0.1407092,0.183633 -0.08512,0.09448 -0.1889538,0.256769 -0.2307424,0.36064 -0.075227,0.186989 -0.075978,0.217428 -0.075978,3.076118 0,2.492024 0.00747,2.908359 0.054528,3.04139 0.02999,0.08477 0.1077967,0.220577 0.1729049,0.301791 0.065108,0.08121 0.1638891,0.197749 0.2195145,0.258966 0.1011373,0.111306 0.1011373,0.111306 0.01382,0.111306 -0.048025,0 -0.1834828,-0.04834 -0.3010193,-0.107419 z"
         id="path9044"
         inkscape:connector-curvature="0" />
      <path
         style="fill:#c6c6c6;stroke-width:0.03295544"
         d="m 5.2556426,52.632233 c 0,-0.0144 0.016831,-0.04032 0.037401,-0.05758 0.02057,-0.01727 0.069316,-0.07773 0.1083209,-0.134363 0.039007,-0.05663 0.1071546,-0.16411 0.1514401,-0.238839 0.08052,-0.135872 0.08052,-0.135872 0.090079,-2.848321 0.00619,-1.757487 -0.00323,-2.752331 -0.02678,-2.825729 -0.019986,-0.06231 -0.1007049,-0.19363 -0.1793736,-0.291833 -0.07867,-0.0982 -0.1710911,-0.21252 -0.2053813,-0.254037 -0.062346,-0.07548 -0.062346,-0.07548 0.038749,0 0.055602,0.04152 0.1485906,0.133081 0.2066399,0.203477 0.058049,0.07039 0.1299691,0.185887 0.1598214,0.256647 0.03557,0.08431 0.058264,0.274353 0.065844,0.551368 0.00636,0.232492 0.013655,0.548395 0.016205,0.702006 0.00463,0.279292 0.00463,0.279292 0.2384421,0.279292 0.2338031,0 0.2338031,0 0.2394187,-0.671811 0.00561,-0.671812 0.00561,-0.671812 0.035194,0.09813 0.016268,0.423468 0.025881,1.612348 0.021362,2.641956 -0.00822,1.872015 -0.00822,1.872015 -0.1083661,2.031569 -0.055082,0.08776 -0.1627485,0.210551 -0.2392585,0.272879 -0.076511,0.06233 -0.2175869,0.14864 -0.3135029,0.191805 -0.095916,0.04317 -0.2108123,0.08773 -0.2553247,0.09903 -0.044513,0.0113 -0.080932,0.0088 -0.080932,-0.0056 z m 2.4129441,-0.06066 C 7.5633283,52.52605 7.3735802,52.409093 7.2469245,52.311672 7.1202683,52.214251 6.9724695,52.07147 6.9184826,51.99438 c -0.098158,-0.140162 -0.098158,-0.140162 -0.099237,-2.993474 -5.931e-4,-1.569322 0.00369,-2.4423 0.00952,-1.939951 0.010603,0.913362 0.010603,0.913362 0.2798435,0.913362 0.2692453,0 0.2692453,0 0.2692453,-0.850458 0,-0.467752 0.010805,-0.841392 0.024,-0.830312 0.013201,0.01108 0.03346,1.293939 0.045021,2.850796 0.021022,2.83065 0.021022,2.83065 0.124644,2.996716 0.056993,0.09134 0.174179,0.244192 0.2604149,0.33968 0.124564,0.137928 0.1435593,0.173615 0.092411,0.173615 -0.03541,0 -0.1505019,-0.03725 -0.2557604,-0.08278 z M 7.4023215,46.111106 c -0.012604,-0.01712 0.011734,-0.117816 0.054093,-0.223772 0.042355,-0.105956 0.1168446,-0.246996 0.1655329,-0.313423 0.048688,-0.06643 0.1217175,-0.151346 0.1622885,-0.188711 0.040571,-0.03736 0.087654,-0.06794 0.1046302,-0.06794 0.016976,0 -0.032521,0.07133 -0.1099935,0.158518 -0.077471,0.08718 -0.1672703,0.202406 -0.199553,0.256047 -0.032283,0.05364 -0.080158,0.167927 -0.1063886,0.253967 -0.026231,0.08604 -0.058005,0.142429 -0.07061,0.12531 z"
         id="path9042"
         inkscape:connector-curvature="0" />
      <path
         style="fill:#c4c4c4;stroke-width:0.03295544"
         d="m 5.2556426,52.639784 c 0.189431,-0.260346 0.4264114,-0.528051 0.3993005,-0.850152 0.034446,-1.4917 -0.00665,-2.984116 0.026715,-4.475792 0.032855,0.156808 0.018647,0.447573 0.055222,0.654801 0.034412,0.291257 0.5726947,0.153665 0.4510177,-0.120832 0.013051,-0.306666 0.00519,-0.613663 0.015078,-0.920382 0.059446,1.565143 0.062853,3.133796 0.037318,4.700293 0.024853,0.263998 -0.088443,0.520955 -0.3262637,0.698477 -0.1800767,0.148226 -0.399899,0.291037 -0.6583875,0.313587 z m 2.4129441,-0.06821 C 7.3512333,52.407896 7.0370258,52.196971 6.8729669,51.910589 c -0.076255,-0.454361 -0.038329,-0.916962 -0.05202,-1.374896 -8.487e-4,-1.186014 -0.00606,-2.372073 0.0037,-3.55806 0.0242,0.354073 -0.026687,0.716174 0.061673,1.064847 0.1462527,0.189792 0.5778653,0.06993 0.4877824,-0.183459 0.01775,-0.356074 0.00187,-0.713026 0.026329,-1.068853 0.050794,1.608743 0.025739,3.220187 0.079528,4.829433 0.00291,0.252744 0.044557,0.512123 0.2280405,0.721181 0.04804,0.09924 0.4159475,0.398379 0.075395,0.276989 -0.038811,-0.01443 -0.077078,-0.0299 -0.1148134,-0.0462 z M 5.650958,46.668436 c -0.024319,-0.275052 -0.2743368,-0.4768 -0.4200353,-0.706416 0.2789313,0.185848 0.470601,0.488524 0.4605801,0.792422 -0.030759,0.04667 -0.043904,-0.07887 -0.040545,-0.08601 z m 1.7544953,-0.583225 c 0.035236,-0.243834 0.1758623,-0.479339 0.3528395,-0.674609 0.2730893,-0.200121 -0.1511641,0.22069 -0.1777942,0.322568 -0.071213,0.111033 -0.084375,0.254353 -0.1750453,0.352041 z"
         id="path9040"
         inkscape:connector-curvature="0" />
      <path
         style="fill:#c1c1c1;stroke-width:0.03295544"
         d="M 7.6479941,52.555419 C 7.5294955,52.50189 7.3254222,52.369777 7.1944975,52.261834 7.0635732,52.153892 6.9258244,52.01802 6.8883889,51.959897 c -0.065327,-0.101429 -0.068154,-0.217985 -0.070283,-2.898604 -0.00139,-1.750512 0.00611,-2.404133 0.020094,-1.751239 0.012272,0.572927 0.02541,1.045082 0.029196,1.049234 0.00379,0.0042 0.119718,0.0075 0.2576268,0.0075 0.2507441,0 0.2507441,0 0.2619181,-0.400067 0.00764,-0.273335 0.015129,-0.165731 0.023662,0.33968 0.00687,0.406861 0.022543,1.399491 0.034832,2.205843 0.022344,1.466097 0.022344,1.466097 0.1443938,1.667821 0.067127,0.110948 0.1763851,0.25501 0.2427956,0.320137 0.06641,0.06513 0.1207459,0.126443 0.1207459,0.136258 0,0.0098 -0.020233,0.01748 -0.044962,0.01704 -0.024729,-4.44e-4 -0.1419155,-0.0446 -0.2604137,-0.09813 z m -2.3338543,8.05e-4 c 0.039071,-0.03737 0.1131921,-0.135872 0.1647154,-0.218905 0.051522,-0.08303 0.1194959,-0.224768 0.151051,-0.314967 0.049758,-0.14223 0.058406,-0.444808 0.06515,-2.27963 0.00428,-1.163599 0.01287,-1.94919 0.019092,-1.745759 0.011317,0.369873 0.011317,0.369873 0.2431195,0.369873 0.2318049,0 0.2318049,0 0.2416883,-0.490649 0.00543,-0.269857 0.024043,0.417166 0.041349,1.526717 0.017306,1.109551 0.023934,2.121797 0.014728,2.249437 -0.010674,0.147984 -0.046218,0.28898 -0.098096,0.389133 -0.048701,0.09402 -0.156739,0.216906 -0.2691548,0.306152 -0.1032877,0.082 -0.2547561,0.177765 -0.3365959,0.212812 -0.08184,0.03505 -0.1846378,0.06372 -0.2284411,0.06372 -0.079643,0 -0.079643,0 -0.0086,-0.06794 z M 5.6566702,46.645791 C 5.653692,46.604271 5.6047727,46.487835 5.5479658,46.387037 5.4911577,46.28624 5.3918982,46.153308 5.3273889,46.091634 c -0.06451,-0.06167 -0.1091964,-0.118928 -0.099305,-0.127232 0.00989,-0.0083 0.071083,0.03567 0.1359814,0.09771 0.064898,0.06205 0.1653224,0.197704 0.2231653,0.301463 0.065364,0.117251 0.099433,0.220642 0.090013,0.273174 -0.01424,0.07941 -0.015483,0.07996 -0.020574,0.009 z m 1.7760046,-0.662372 c 0.00991,-0.05708 0.058925,-0.178795 0.1089249,-0.270471 0.049999,-0.09167 0.1315527,-0.211414 0.1812305,-0.266086 0.049677,-0.05467 0.1071236,-0.0994 0.1276589,-0.0994 0.020536,0 -0.00547,0.0427 -0.057778,0.09489 -0.052313,0.05219 -0.1367172,0.163802 -0.1875657,0.248033 -0.050848,0.08423 -0.1145096,0.207976 -0.1414696,0.274988 -0.047445,0.117929 -0.04844,0.118509 -0.031001,0.01805 z"
         id="path9038"
         inkscape:connector-curvature="0" />
      <path
         style="fill:#bebebe;stroke-width:0.03295544"
         d="M 7.6632669,52.558022 C 7.522547,52.498995 7.3423898,52.384992 7.1980481,52.263632 7.0684878,52.154701 6.930498,52.011226 6.8914038,51.9448 c -0.069146,-0.11749 -0.071143,-0.194692 -0.073405,-2.838216 -0.00145,-1.699191 0.00571,-2.310141 0.019125,-1.630464 0.011794,0.597837 0.024985,1.090373 0.029304,1.094524 0.00432,0.0042 0.1204757,0.0075 0.2581271,0.0075 0.2502746,0 0.2502746,0 0.2625339,-0.234002 0.00674,-0.128701 0.017169,0.261931 0.023171,0.868071 0.006,0.60614 0.021398,1.482515 0.034216,1.947499 0.023262,0.843869 0.023488,0.845739 0.1225994,1.01515 0.054611,0.09335 0.1638697,0.231305 0.2427955,0.306571 0.078926,0.07527 0.1435008,0.144953 0.1435008,0.154859 0,0.0099 -0.013601,0.01801 -0.030224,0.01801 -0.016623,0 -0.1335687,-0.04335 -0.2598784,-0.09633 z M 5.3607968,52.51078 c 0.059699,-0.06236 0.1535335,-0.201627 0.2085207,-0.309486 0.099977,-0.196107 0.099977,-0.196107 0.1187256,-2.143606 0.010317,-1.071124 0.022451,-1.842198 0.026977,-1.713497 0.00823,0.234002 0.00823,0.234002 0.2402365,0.234002 0.2320079,0 0.2320079,0 0.2427955,-0.173614 0.00593,-0.09549 0.024546,0.61474 0.041362,1.578284 0.023069,1.321883 0.02014,1.785087 -0.011932,1.887111 -0.023378,0.07437 -0.081393,0.191615 -0.1289218,0.260551 -0.047529,0.06894 -0.1609296,0.180394 -0.2520013,0.247686 -0.091072,0.06729 -0.2340217,0.150159 -0.3176671,0.184149 -0.083646,0.03399 -0.1801077,0.0618 -0.2143605,0.0618 -0.050843,0 -0.042348,-0.02082 0.046265,-0.11338 z M 6.203423,47.974317 c 0,-0.141156 0.00619,-0.198901 0.013769,-0.128323 0.00758,0.07058 0.00758,0.186069 0,0.256647 -0.00758,0.07058 -0.013769,0.01283 -0.013769,-0.128324 z M 5.5479616,46.375859 c -0.046723,-0.08261 -0.141625,-0.205777 -0.2108943,-0.273708 -0.069269,-0.06793 -0.1180812,-0.130111 -0.108471,-0.138178 0.00961,-0.0081 0.068216,0.03385 0.1302359,0.09314 0.06202,0.05929 0.1541204,0.176317 0.2046686,0.260051 0.050548,0.08373 0.086844,0.16499 0.080658,0.180569 -0.00618,0.01558 -0.049474,-0.03927 -0.096197,-0.121874 z m 1.881804,-0.39244 c 0.011508,-0.05708 0.061834,-0.178795 0.111834,-0.270471 0.049999,-0.09167 0.1315526,-0.211414 0.1812305,-0.266086 0.049677,-0.05467 0.1085067,-0.0994 0.1307318,-0.0994 0.022225,0 0.00786,0.03057 -0.031916,0.06794 -0.039778,0.03737 -0.1093537,0.113163 -0.1546117,0.16844 -0.045259,0.05528 -0.1218665,0.191149 -0.170241,0.301938 -0.051202,0.117264 -0.079209,0.158066 -0.067028,0.09765 z"
         id="path9036"
         inkscape:connector-curvature="0" />
      <path
         style="fill:#bcbcbc;stroke-width:0.03295544"
         d="M 7.6678785,52.559956 C 7.5364578,52.50483 7.3465015,52.384553 7.203791,52.266103 7.0709106,52.155812 6.9357783,52.01802 6.9034969,51.959897 c -0.051182,-0.09215 -0.061255,-0.316266 -0.078711,-1.75124 -0.014167,-1.164598 -0.00898,-1.621292 0.017735,-1.562528 0.036126,0.07946 0.048405,0.08303 0.2850304,0.08303 0.2472772,0 0.2472772,0 0.2595364,-0.234002 0.00674,-0.128701 0.017008,0.275518 0.022812,0.898265 0.0058,0.622747 0.017137,1.436473 0.025185,1.80828 0.00805,0.371807 0.032159,0.731868 0.05358,0.800135 0.021422,0.06827 0.079955,0.183561 0.1300754,0.256208 0.05012,0.07265 0.1465704,0.183601 0.2143341,0.246562 0.067763,0.06296 0.1083757,0.12217 0.090249,0.131574 -0.018127,0.0094 -0.1330763,-0.0249 -0.2554446,-0.07623 z M 5.3388929,52.53473 c 0.05502,-0.05489 0.1341046,-0.155728 0.1757427,-0.224088 0.041638,-0.06836 0.097325,-0.192228 0.123748,-0.275261 0.037101,-0.116585 0.049788,-0.563571 0.055707,-1.962596 0.00422,-0.996395 0.013182,-1.706326 0.019924,-1.577625 0.01226,0.234002 0.01226,0.234002 0.2430361,0.234002 0.2307769,0 0.2307769,0 0.2430361,-0.234002 0.00674,-0.128701 0.019563,0.329867 0.028491,1.01904 0.00892,0.689173 0.016118,1.504405 0.01598,1.811627 -2.157e-4,0.505914 -0.00748,0.571746 -0.076879,0.698153 -0.042146,0.07676 -0.1359589,0.194694 -0.2084739,0.262071 -0.072515,0.06738 -0.2090189,0.164072 -0.3033418,0.21488 -0.094323,0.05081 -0.2267366,0.101652 -0.2942523,0.112987 -0.1227558,0.02061 -0.1227558,0.02061 -0.022719,-0.07919 z m 1.4788242,-4.862351 c 0,-0.373648 0.00516,-0.526504 0.011472,-0.33968 0.00631,0.186824 0.00631,0.492536 0,0.67936 -0.00631,0.186824 -0.011472,0.03397 -0.011472,-0.33968 z M 5.5849481,46.434434 C 5.5617691,46.376314 5.4701001,46.2475 5.3812387,46.148187 5.2923776,46.048877 5.219673,45.961413 5.219673,45.953827 c 0,-0.0076 0.047249,0.02421 0.1049984,0.07065 0.057749,0.04644 0.1560621,0.164863 0.218474,0.263157 0.062412,0.09829 0.1068318,0.195312 0.098711,0.215597 -0.00812,0.02029 -0.033729,-0.01067 -0.056908,-0.0688 z m 1.8489043,-0.468003 c 0.011258,-0.04982 0.060552,-0.164738 0.1095563,-0.255374 0.049004,-0.09063 0.1297429,-0.209523 0.1794208,-0.264195 0.049677,-0.05467 0.1060621,-0.0994 0.1252979,-0.0994 0.019237,0 -0.02897,0.06791 -0.1071272,0.150906 -0.078156,0.083 -0.1734255,0.222267 -0.2117087,0.309486 -0.038284,0.08722 -0.080022,0.178961 -0.092752,0.203871 -0.01273,0.02491 -0.013939,0.0045 -0.00269,-0.04529 z"
         id="path9034"
         inkscape:connector-curvature="0" />
      <path
         style="fill:#b9b9b9;stroke-width:0.03295544"
         d="M 7.7773099,52.606111 C 7.710544,52.582546 7.5559689,52.503396 7.4338097,52.430223 7.3116505,52.35705 7.1543575,52.238276 7.0842698,52.166281 c -0.070087,-0.072 -0.1541013,-0.174384 -0.1866964,-0.22753 -0.052801,-0.08609 -0.058955,-0.258971 -0.056424,-1.585174 0.00156,-0.818699 0.011008,-1.471559 0.020982,-1.450801 0.012034,0.02504 0.1010564,0.03774 0.2644313,0.03774 0.226812,0 0.2475215,-0.0054 0.2618771,-0.06794 0.00858,-0.03737 0.020779,0.495933 0.027123,1.185106 0.00635,0.689173 0.013757,1.396666 0.016471,1.572205 0.00447,0.288926 0.015475,0.338069 0.1161822,0.518718 0.061185,0.109754 0.1781277,0.260461 0.2598717,0.334902 0.081744,0.07444 0.135573,0.14212 0.1196197,0.150396 -0.015953,0.0083 -0.083633,-0.0042 -0.1503982,-0.0278 z M 5.375616,52.501007 c 0.069069,-0.06773 0.1674479,-0.21797 0.218621,-0.333859 0.093043,-0.210706 0.093043,-0.210706 0.099844,-1.892282 0.00374,-0.924867 0.012642,-1.60345 0.01978,-1.507962 0.012979,0.173614 0.012979,0.173614 0.2419891,0.173614 0.1495526,0 0.2353055,-0.01309 0.2471531,-0.03774 0.00998,-0.02076 0.022253,0.594063 0.027278,1.366269 0.00503,0.772206 0.0048,1.458359 -4.891e-4,1.524786 -0.00529,0.06643 -0.048947,0.190652 -0.09701,0.276057 -0.048062,0.08541 -0.1584083,0.210237 -0.2452147,0.277404 -0.086806,0.06717 -0.2396837,0.156939 -0.3397273,0.199494 -0.1000426,0.04256 -0.2079757,0.07737 -0.2398499,0.07737 -0.042237,0 -0.0239,-0.0334 0.067626,-0.123153 z m 0.1234977,-6.21242 C 5.4451993,46.211037 5.3568621,46.100038 5.30281,46.041915 5.204533,45.936237 5.204533,45.936237 5.31572,46.021465 c 0.061153,0.04688 0.1551893,0.153095 0.2089699,0.23604 0.053781,0.08295 0.092082,0.155595 0.085117,0.161442 -0.00697,0.0058 -0.056778,-0.05281 -0.1106927,-0.130362 z m 2.0230534,-0.527464 c -2.518e-4,-0.01328 0.026245,-0.06763 0.058852,-0.120775 0.032607,-0.05315 0.09961,-0.141159 0.1488947,-0.195582 0.049285,-0.05442 0.098207,-0.09173 0.1087152,-0.08291 0.010507,0.0088 -0.014826,0.04656 -0.056297,0.08385 -0.041471,0.0373 -0.1168768,0.128959 -0.1675673,0.203689 -0.050691,0.07473 -0.09236,0.125007 -0.092598,0.111727 z"
         id="path9032"
         inkscape:connector-curvature="0" />
      <path
         style="fill:#b5b5b5;stroke-width:0.03295544"
         d="m 5.3784459,52.498232 c 0.070625,-0.06926 0.1649579,-0.201735 0.2096287,-0.294389 0.079705,-0.16532 0.08157,-0.197466 0.099995,-1.723442 0.010329,-0.855239 0.022467,-1.497234 0.026977,-1.426656 0.0082,0.128324 0.0082,0.128324 0.2396157,0.128324 0.2247158,0 0.2318622,-0.0024 0.2469072,-0.08303 0.00852,-0.04567 0.013643,0.575946 0.011377,1.381365 -0.00391,1.392419 -0.0076,1.470335 -0.075012,1.585174 -0.038995,0.06643 -0.1461377,0.184186 -0.2380946,0.261687 -0.091957,0.0775 -0.2497037,0.176009 -0.3505483,0.218905 -0.1008443,0.0429 -0.2094325,0.07799 -0.2413067,0.07799 -0.042029,0 -0.022669,-0.0346 0.070456,-0.125928 z m 2.1938267,0.01 C 7.4554512,52.4444 7.2901805,52.334986 7.2050046,52.265044 7.1198288,52.195103 7.0024775,52.074791 6.9442243,51.997685 6.8383099,51.857493 6.8383099,51.857493 6.8383099,50.519781 c 0,-1.337712 0,-1.337712 0.2697727,-1.337712 0.2299619,0 0.2709292,-0.0078 0.2776081,-0.05284 0.00431,-0.02906 0.016449,0.592553 0.026977,1.381366 0.019142,1.434205 0.019142,1.434205 0.1320225,1.63419 0.062084,0.109991 0.1713419,0.254304 0.2427955,0.320694 0.071453,0.06639 0.1299149,0.129253 0.1299149,0.139695 0,0.01044 -0.029863,0.01899 -0.066362,0.01899 -0.0365,0 -0.1619439,-0.05219 -0.2787652,-0.115975 z M 5.4991137,46.288587 c -0.053914,-0.07755 -0.1423757,-0.188549 -0.1965795,-0.246672 -0.092309,-0.09898 -0.092917,-0.101481 -0.0096,-0.03944 0.048921,0.03643 0.1437239,0.142111 0.2106749,0.234841 0.066951,0.09273 0.1153864,0.173924 0.1076335,0.180432 -0.00776,0.0065 -0.058208,-0.05162 -0.1121223,-0.129163 z m 2.0230534,-0.527464 c -2.518e-4,-0.01328 0.026354,-0.06763 0.059094,-0.120775 0.03274,-0.05315 0.092436,-0.133995 0.1326585,-0.179663 0.040222,-0.04567 0.089094,-0.08303 0.1086055,-0.08303 0.019511,0 0.00149,0.03057 -0.040061,0.06794 -0.041544,0.03737 -0.1170102,0.129078 -0.1677004,0.203808 -0.050691,0.07473 -0.09236,0.125007 -0.092598,0.111727 z"
         id="path9030"
         inkscape:connector-curvature="0" />
      <path
         style="fill:#b1b1b1;stroke-width:0.03295544"
         d="m 5.3596628,52.517677 c 0.1876505,-0.186112 0.3163716,-0.418684 0.3041216,-0.666449 0.030695,-0.786298 0.029511,-1.573251 0.054872,-2.359673 0.2445289,-0.03491 0.5934079,-0.03713 0.4947634,0.262582 0.01152,0.683499 0.028403,1.367988 -0.00307,2.051143 -0.04585,0.399714 -0.456959,0.710172 -0.900165,0.814018 -0.1174355,0.02829 0.037676,-0.0799 0.049476,-0.101621 z m 2.3094804,0.03813 C 7.3745458,52.398608 7.1019019,52.19782 6.9129659,51.949511 6.8041349,51.715296 6.855998,51.454665 6.8391908,51.2084 c 0.00861,-0.520514 -0.024593,-1.042905 0.025836,-1.562171 -0.033801,-0.246315 0.5623138,-0.229723 0.5304759,-0.01846 0.037806,0.740842 -0.010257,1.48369 0.044995,2.22372 0.032323,0.297928 0.2741604,0.528639 0.4676924,0.762384 -0.072808,0.02999 -0.16722,-0.03849 -0.2390466,-0.05806 z M 5.4044231,46.155142 c -0.2248834,-0.28175 0.199846,0.145256 0.148971,0.173821 -0.05276,-0.056 -0.100743,-0.115056 -0.148971,-0.173821 z"
         id="path9028"
         inkscape:connector-curvature="0" />
      <path
         style="fill:#adadad;stroke-width:0.03295544"
         d="m 5.3599147,52.517437 c 0.067241,-0.06434 0.1643594,-0.192325 0.2158184,-0.284419 0.092134,-0.164888 0.09391,-0.181037 0.1164014,-1.05816 0.012562,-0.489894 0.024703,-1.002811 0.026977,-1.139815 0.00413,-0.249099 0.00413,-0.249099 0.2328161,-0.249099 0.2286792,0 0.2286792,0 0.2517879,0.185592 0.01271,0.102076 0.02295,0.574231 0.022757,1.049234 -3.596e-4,0.848407 -0.00188,0.866393 -0.086841,1.019571 -0.04757,0.08576 -0.1509741,0.210059 -0.2297888,0.276218 -0.078815,0.06616 -0.2137395,0.154711 -0.2998333,0.196782 -0.086094,0.04207 -0.2050932,0.08652 -0.2644431,0.09878 -0.1079087,0.02229 -0.1079087,0.02229 0.014348,-0.09469 z m 2.2378412,-0.0065 C 7.4723098,52.448658 7.2672591,52.30659 7.1420879,52.195225 6.9987947,52.067738 6.9004672,51.950316 6.8766066,51.87819 c -0.022797,-0.06891 -0.037976,-0.489519 -0.038096,-1.055639 -1.079e-4,-0.517598 0.00963,-0.962579 0.021633,-0.988847 0.016926,-0.03702 0.076414,-0.04776 0.2646486,-0.04776 0.2428155,0 0.2428155,0 0.2659243,0.185592 0.01271,0.102076 0.023109,0.568368 0.023109,1.036205 0,0.671401 0.01146,0.883021 0.054417,1.004431 0.029929,0.0846 0.1425282,0.256905 0.2502196,0.382902 0.1076919,0.125997 0.1759077,0.229086 0.1515907,0.229086 -0.024317,0 -0.1468498,-0.05095 -0.2722957,-0.113227 z"
         id="path9026"
         inkscape:connector-curvature="0" />
      <path
         style="fill:#a9a9a9;stroke-width:0.03295544"
         d="m 5.3543385,52.522768 c 0.064174,-0.0614 0.1469623,-0.162218 0.1839731,-0.224031 0.037011,-0.06181 0.085425,-0.159942 0.1075871,-0.218065 0.022162,-0.05812 0.04724,-0.295899 0.055729,-0.528392 0.00849,-0.232492 0.016827,-0.657092 0.018528,-0.943555 0.0031,-0.520843 0.0031,-0.520843 0.233667,-0.520843 0.2305741,0 0.2305741,0 0.2545465,0.249099 0.013184,0.137004 0.018684,0.548017 0.012222,0.913362 -0.010888,0.615732 -0.017631,0.674278 -0.092237,0.801347 -0.044267,0.0754 -0.1478124,0.194164 -0.2300997,0.263929 -0.082287,0.06976 -0.2171144,0.16005 -0.2996167,0.200636 -0.082502,0.04059 -0.1974734,0.08377 -0.2554915,0.09597 -0.105488,0.02218 -0.105488,0.02218 0.011198,-0.08946 z m 2.2552032,-0.0061 C 7.4920062,52.457528 7.3255938,52.352231 7.2397377,52.282666 7.1538811,52.213106 7.0324839,52.095043 6.969965,52.020313 6.856294,51.884441 6.856294,51.884441 6.8520863,50.986176 c -0.00421,-0.898265 -0.00421,-0.898265 0.2552845,-0.898265 0.2594919,0 0.2594919,0 0.2828089,0.33968 0.012824,0.186824 0.023775,0.597837 0.024335,0.913362 9.388e-4,0.528829 0.00751,0.58691 0.08393,0.742873 0.045603,0.09305 0.1594687,0.252705 0.2530363,0.354777 0.098505,0.107458 0.1494193,0.185586 0.1209428,0.185586 -0.027049,0 -0.1453463,-0.04839 -0.2628821,-0.107521 z"
         id="path9024"
         inkscape:connector-curvature="0" />
      <path
         style="fill:#a5a5a5;stroke-width:0.03295544"
         d="M 7.6376852,52.52996 C 7.5333001,52.478882 7.358716,52.368676 7.249721,52.285056 7.140726,52.201437 7.0076158,52.07029 6.9539213,51.99362 6.8574075,51.855808 6.856278,51.847848 6.8548741,51.295633 c -7.805e-4,-0.307221 0.00482,-0.629917 0.012465,-0.717102 0.013883,-0.158517 0.013883,-0.158517 0.2568689,-0.158517 0.2429851,0 0.2429851,0 0.2660856,0.249098 0.012705,0.137005 0.023198,0.469381 0.023316,0.738615 1.798e-4,0.422827 0.010495,0.512568 0.075632,0.658719 0.04148,0.09306 0.1552337,0.256617 0.2527875,0.363458 0.097554,0.106841 0.1566875,0.193956 0.1314089,0.19359 -0.025279,-3.66e-4 -0.1313679,-0.04246 -0.2357526,-0.09353 z M 5.3726568,52.51093 c 0.051977,-0.04567 0.1480771,-0.178143 0.2135552,-0.294389 0.1190521,-0.211357 0.1190521,-0.211357 0.1302219,-1.003944 0.011174,-0.792586 0.011174,-0.792586 0.2373702,-0.792586 0.2262004,0 0.2262004,0 0.2494243,0.294389 0.012773,0.161914 0.023308,0.478793 0.02341,0.704175 1.439e-4,0.295923 -0.015725,0.448985 -0.057079,0.550862 -0.031496,0.07759 -0.1310917,0.210003 -0.2213249,0.294249 -0.090233,0.08425 -0.2465607,0.192894 -0.3473945,0.241441 -0.1008336,0.04855 -0.2146885,0.0884 -0.2530106,0.08855 -0.062847,2.41e-4 -0.060413,-0.0079 0.024827,-0.08275 z"
         id="path9022"
         inkscape:connector-curvature="0" />
      <path
         style="fill:#a1a1a1;stroke-width:0.03295544"
         d="M 7.6402782,52.531216 C 7.5373194,52.480826 7.3727238,52.378959 7.2745107,52.304836 7.1762968,52.230716 7.0460671,52.106862 6.98511,52.029612 6.8742791,51.889156 6.8742791,51.889156 6.8742791,51.320651 c 0,-0.568506 0,-0.568506 0.2466226,-0.568506 0.2466227,0 0.2466227,0 0.2677017,0.203808 0.011591,0.112095 0.020369,0.374719 0.019501,0.583611 -0.00138,0.332658 0.00883,0.40012 0.082288,0.543488 0.046126,0.09003 0.1604231,0.248606 0.2539946,0.352397 0.093572,0.103791 0.1505462,0.188411 0.1266101,0.188045 -0.023937,-3.66e-4 -0.1277597,-0.04189 -0.2307183,-0.09228 z m -2.2286925,-0.0604 c 0.069069,-0.06773 0.167448,-0.21797 0.218621,-0.333859 0.088279,-0.19992 0.093043,-0.240758 0.093043,-0.797757 0,-0.587052 0,-0.587052 0.2304463,-0.587052 0.230446,0 0.230446,0 0.2560039,0.286156 0.014057,0.157386 0.018622,0.41894 0.01015,0.581231 -0.012663,0.242429 -0.032095,0.322225 -0.108907,0.447255 -0.051421,0.0837 -0.1661708,0.208416 -0.2549993,0.277148 -0.088829,0.06873 -0.2272166,0.153106 -0.3075287,0.187498 -0.080312,0.03439 -0.1722073,0.06253 -0.204212,0.06253 -0.042592,0 -0.02453,-0.03301 0.067389,-0.123153 z"
         id="path9020"
         inkscape:connector-curvature="0" />
      <path
         style="fill:#9d9d9d;stroke-width:0.03295544"
         d="M 7.7190342,52.560185 C 7.6401944,52.524995 7.5028495,52.451417 7.4138245,52.39667 7.324799,52.34192 7.2090973,52.258617 7.1567084,52.211546 c -0.05239,-0.04707 -0.1373675,-0.138432 -0.1888408,-0.203024 -0.088701,-0.111307 -0.093588,-0.137719 -0.093588,-0.505746 0,-0.388305 0,-0.388305 0.2517879,-0.388305 0.2517877,0 0.2517877,0 0.2581339,0.128323 0.00349,0.07058 0.00841,0.250609 0.010936,0.400068 0.00366,0.216114 0.02246,0.30574 0.091855,0.43781 0.047992,0.09134 0.1638175,0.250986 0.2573891,0.354777 0.093572,0.103791 0.1583998,0.188711 0.1440622,0.188711 -0.014337,0 -0.090574,-0.02879 -0.1694144,-0.06398 z m -2.3691463,-0.004 c 0.014603,-0.02076 0.066206,-0.08208 0.114674,-0.136282 0.048467,-0.0542 0.1264994,-0.18729 0.1734046,-0.295763 0.073863,-0.170814 0.085282,-0.251621 0.085282,-0.603466 0,-0.406242 0,-0.406242 0.2291694,-0.406242 0.2291695,0 0.2291695,0 0.2543271,0.297869 0.013837,0.163828 0.013733,0.350652 -2.159e-4,0.415165 -0.013963,0.06451 -0.056272,0.168859 -0.094022,0.231882 -0.037749,0.06302 -0.1278658,0.169621 -0.2002596,0.236886 -0.072394,0.06726 -0.2133236,0.161634 -0.313177,0.209712 -0.099853,0.04808 -0.2027399,0.08754 -0.2286365,0.0877 -0.027881,1.81e-4 -0.036256,-0.01511 -0.020533,-0.03746 z"
         id="path9018"
         inkscape:connector-curvature="0" />
      <path
         style="fill:#999999;stroke-width:0.03295544"
         d="M 7.7174297,52.559818 C 7.6394718,52.525224 7.4878138,52.440629 7.3804115,52.371829 7.2730096,52.303029 7.1151926,52.167117 7.029707,52.069802 6.8846563,51.904679 6.8742791,51.879984 6.8742791,51.699928 c 0,-0.192938 0,-0.192938 0.2653542,-0.192938 0.2653545,0 0.2653545,0 0.2477038,0.131449 -0.010448,0.07778 0.00734,0.204138 0.043569,0.309486 0.033671,0.09792 0.094871,0.225593 0.1359999,0.283716 0.041128,0.05812 0.130533,0.164168 0.1986754,0.235656 0.068142,0.07149 0.1170757,0.135703 0.1087426,0.142699 -0.00834,0.007 -0.078936,-0.01558 -0.1568947,-0.05018 z M 5.4531651,52.434267 c 0.069475,-0.08783 0.1586654,-0.236954 0.1982008,-0.331377 0.045634,-0.108987 0.071883,-0.249135 0.071883,-0.383789 0,-0.212111 0,-0.212111 0.233803,-0.212111 0.2338031,0 0.2338031,0 0.2392273,0.113227 0.00298,0.06227 0.00166,0.153988 -0.00295,0.203808 -0.00461,0.04982 -0.036859,0.14493 -0.071674,0.211356 -0.034816,0.06643 -0.1101328,0.167294 -0.1673717,0.224152 -0.057238,0.05686 -0.1998922,0.155364 -0.3170082,0.218905 -0.117115,0.06354 -0.2348724,0.115528 -0.2616824,0.115528 -0.031236,0 -0.00337,-0.05736 0.077572,-0.159699 z"
         id="path9016"
         inkscape:connector-curvature="0" />
      <path
         style="fill:#959595;stroke-width:0.03295544"
         d="m 5.4347042,52.468009 c 0.060288,-0.07188 0.1489731,-0.212213 0.1970783,-0.311853 0.087464,-0.181163 0.087464,-0.181163 0.305283,-0.190152 0.1198008,-0.0049 0.2177592,0.0019 0.2176851,0.0151 -7.2e-5,0.01325 -0.034097,0.07164 -0.075607,0.129764 -0.04151,0.05812 -0.1179525,0.143601 -0.1698731,0.189951 -0.05192,0.04635 -0.1676212,0.123021 -0.2571128,0.170381 -0.089493,0.04736 -0.1996923,0.09542 -0.24489,0.106806 -0.078626,0.0198 -0.07744,0.01505 0.027437,-0.109994 z m 2.2488931,0.07497 C 7.624247,52.516269 7.4866631,52.435698 7.3778548,52.363931 7.2690467,52.292161 7.1385452,52.18888 7.087852,52.134411 7.0371589,52.079941 6.9835983,52.018392 6.9688274,51.997634 c -0.020362,-0.02862 0.029,-0.03774 0.2041334,-0.03774 0.230988,0 0.230988,0 0.3416693,0.188711 0.060875,0.103791 0.1695694,0.246456 0.2415437,0.317034 0.071974,0.07058 0.109368,0.12778 0.083098,0.127115 -0.02627,-6.64e-4 -0.096325,-0.02306 -0.155674,-0.04977 z"
         id="path9014"
         inkscape:connector-curvature="0" />
      <path
         style="fill:#8b8b8b;stroke-width:0.03295544"
         d="m 5.3635518,52.580153 c 0,-0.0082 0.052605,-0.03714 0.1169017,-0.06441 0.064295,-0.02727 0.2059265,-0.103195 0.3147349,-0.168724 0.1978333,-0.119144 0.1978333,-0.119144 0.053955,-0.0087 -0.079133,0.06072 -0.2207641,0.143319 -0.3147348,0.183554 -0.093971,0.04023 -0.1708561,0.06648 -0.1708561,0.05832 z M 7.5722726,52.476926 C 7.4554506,52.412556 7.2789381,52.287557 7.1800215,52.199157 7.000173,52.038429 7.000173,52.038429 7.238115,52.220767 c 0.1308682,0.100288 0.3251046,0.224985 0.4316363,0.277102 0.1065316,0.05212 0.175971,0.09506 0.1543089,0.09543 -0.021662,3.65e-4 -0.1349665,-0.052 -0.2517878,-0.116374 z"
         id="path9012"
         inkscape:connector-curvature="0" />
    </g>
  </g>
</svg>
